<svg width="130" height="60" viewBox="0 0 130 60" fill="none" xmlns="http://www.w3.org/2000/svg">
<rect width="130" height="60" fill="#AAAAAA"/>
<path d="M27.543 38H25.3633V23.5508L20.9922 25.1562V23.1875L27.2031 20.8555H27.543V38ZM37.0469 28.4141H38.6758C39.6992 28.3984 40.5039 28.1289 41.0898 27.6055C41.6758 27.082 41.9688 26.375 41.9688 25.4844C41.9688 23.4844 40.9727 22.4844 38.9805 22.4844C38.043 22.4844 37.293 22.7539 36.7305 23.293C36.1758 23.8242 35.8984 24.5312 35.8984 25.4141H33.7305C33.7305 24.0625 34.2227 22.9414 35.207 22.0508C36.1992 21.1523 37.457 20.7031 38.9805 20.7031C40.5898 20.7031 41.8516 21.1289 42.7656 21.9805C43.6797 22.832 44.1367 24.0156 44.1367 25.5312C44.1367 26.2734 43.8945 26.9922 43.4102 27.6875C42.9336 28.3828 42.2812 28.9023 41.4531 29.2461C42.3906 29.543 43.1133 30.0352 43.6211 30.7227C44.1367 31.4102 44.3945 32.25 44.3945 33.2422C44.3945 34.7734 43.8945 35.9883 42.8945 36.8867C41.8945 37.7852 40.5938 38.2344 38.9922 38.2344C37.3906 38.2344 36.0859 37.8008 35.0781 36.9336C34.0781 36.0664 33.5781 34.9219 33.5781 33.5H35.7578C35.7578 34.3984 36.0508 35.1172 36.6367 35.6562C37.2227 36.1953 38.0078 36.4648 38.9922 36.4648C40.0391 36.4648 40.8398 36.1914 41.3945 35.6445C41.9492 35.0977 42.2266 34.3125 42.2266 33.2891C42.2266 32.2969 41.9219 31.5352 41.3125 31.0039C40.7031 30.4727 39.8242 30.1992 38.6758 30.1836H37.0469V28.4141ZM58.0703 30.7227C58.0703 33.2617 57.6367 35.1484 56.7695 36.3828C55.9023 37.6172 54.5469 38.2344 52.7031 38.2344C50.8828 38.2344 49.5352 37.6328 48.6602 36.4297C47.7852 35.2188 47.332 33.4141 47.3008 31.0156V28.1211C47.3008 25.6133 47.7344 23.75 48.6016 22.5312C49.4688 21.3125 50.8281 20.7031 52.6797 20.7031C54.5156 20.7031 55.8672 21.293 56.7344 22.4727C57.6016 23.6445 58.0469 25.457 58.0703 27.9102V30.7227ZM55.9023 27.7578C55.9023 25.9219 55.6445 24.5859 55.1289 23.75C54.6133 22.9062 53.7969 22.4844 52.6797 22.4844C51.5703 22.4844 50.7617 22.9023 50.2539 23.7383C49.7461 24.5742 49.4844 25.8594 49.4688 27.5938V31.0625C49.4688 32.9062 49.7344 34.2695 50.2656 35.1523C50.8047 36.0273 51.6172 36.4648 52.7031 36.4648C53.7734 36.4648 54.5664 36.0508 55.082 35.2227C55.6055 34.3945 55.8789 33.0898 55.9023 31.3086V27.7578ZM71.2773 29.9492L74.0898 25.3203H76.6211L72.4727 31.5898L76.75 38H74.2422L71.3125 33.2539L68.3828 38H65.8633L70.1406 31.5898L65.9922 25.3203H68.5L71.2773 29.9492ZM93.168 20.9258V22.7656H92.7695C91.082 22.7969 89.7383 23.2969 88.7383 24.2656C87.7383 25.2344 87.1602 26.5977 87.0039 28.3555C87.9023 27.3242 89.1289 26.8086 90.6836 26.8086C92.168 26.8086 93.3516 27.332 94.2344 28.3789C95.125 29.4258 95.5703 30.7773 95.5703 32.4336C95.5703 34.1914 95.0898 35.5977 94.1289 36.6523C93.1758 37.707 91.8945 38.2344 90.2852 38.2344C88.6523 38.2344 87.3281 37.6094 86.3125 36.3594C85.2969 35.1016 84.7891 33.4844 84.7891 31.5078V30.6758C84.7891 27.5352 85.457 25.1367 86.793 23.4805C88.1367 21.8164 90.1328 20.9648 92.7812 20.9258H93.168ZM90.3203 28.6133C89.5781 28.6133 88.8945 28.8359 88.2695 29.2812C87.6445 29.7266 87.2109 30.2852 86.9688 30.957V31.7539C86.9688 33.1602 87.2852 34.293 87.918 35.1523C88.5508 36.0117 89.3398 36.4414 90.2852 36.4414C91.2617 36.4414 92.0273 36.082 92.582 35.3633C93.1445 34.6445 93.4258 33.7031 93.4258 32.5391C93.4258 31.3672 93.1406 30.4219 92.5703 29.7031C92.0078 28.9766 91.2578 28.6133 90.3203 28.6133ZM108.836 30.7227C108.836 33.2617 108.402 35.1484 107.535 36.3828C106.668 37.6172 105.312 38.2344 103.469 38.2344C101.648 38.2344 100.301 37.6328 99.4258 36.4297C98.5508 35.2188 98.0977 33.4141 98.0664 31.0156V28.1211C98.0664 25.6133 98.5 23.75 99.3672 22.5312C100.234 21.3125 101.594 20.7031 103.445 20.7031C105.281 20.7031 106.633 21.293 107.5 22.4727C108.367 23.6445 108.812 25.457 108.836 27.9102V30.7227ZM106.668 27.7578C106.668 25.9219 106.41 24.5859 105.895 23.75C105.379 22.9062 104.562 22.4844 103.445 22.4844C102.336 22.4844 101.527 22.9023 101.02 23.7383C100.512 24.5742 100.25 25.8594 100.234 27.5938V31.0625C100.234 32.9062 100.5 34.2695 101.031 35.1523C101.57 36.0273 102.383 36.4648 103.469 36.4648C104.539 36.4648 105.332 36.0508 105.848 35.2227C106.371 34.3945 106.645 33.0898 106.668 31.3086V27.7578Z" fill="black"/>
</svg>
